<?xml version="1.0" encoding="UTF-8" standalone="no"?>
<svg
   xmlns:dc="http://purl.org/dc/elements/1.1/"
   xmlns:cc="http://creativecommons.org/ns#"
   xmlns:rdf="http://www.w3.org/1999/02/22-rdf-syntax-ns#"
   xmlns:svg="http://www.w3.org/2000/svg"
   xmlns="http://www.w3.org/2000/svg"
   xmlns:sodipodi="http://sodipodi.sourceforge.net/DTD/sodipodi-0.dtd"
   xmlns:inkscape="http://www.inkscape.org/namespaces/inkscape"
   width="32.578125pt"
   height="31.775005pt"
   viewBox="0 0 32.578124 31.775004"
   version="1.1"
   id="svg2"
   inkscape:version="0.91 r13725"
   sodipodi:docname="g.svg">
  <metadata
     id="metadata191">
    <rdf:RDF>
      <cc:Work
         rdf:about="">
        <dc:format>image/svg+xml</dc:format>
        <dc:type
           rdf:resource="http://purl.org/dc/dcmitype/StillImage" />
        <dc:title></dc:title>
      </cc:Work>
    </rdf:RDF>
  </metadata>
  <defs
     id="defs189" />
  <sodipodi:namedview
     pagecolor="#ffffff"
     bordercolor="#666666"
     borderopacity="1"
     objecttolerance="10"
     gridtolerance="10"
     guidetolerance="10"
     inkscape:pageopacity="0"
     inkscape:pageshadow="2"
     inkscape:window-width="1920"
     inkscape:window-height="1017"
     id="namedview187"
     showgrid="false"
     fit-margin-top="0"
     fit-margin-left="0"
     fit-margin-right="0"
     fit-margin-bottom="0"
     inkscape:zoom="1.2071314"
     inkscape:cx="27.49232"
     inkscape:cy="-170.97075"
     inkscape:window-x="1912"
     inkscape:window-y="-8"
     inkscape:window-maximized="1"
     inkscape:current-layer="svg2" />
  <g
     id="surface237"
     transform="translate(-136.32034,-107.44141)">
    <path
       style="fill:#191714;fill-opacity:1;fill-rule:evenodd;stroke:none"
       d="m 152.60937,107.44141 c -8.99609,0 -16.28906,7.29297 -16.28906,16.28906 0,7.19531 4.66797,13.30078 11.14063,15.45703 0.8125,0.14844 1.11328,-0.35547 1.11328,-0.78516 0,-0.38672 -0.0156,-1.41015 -0.0234,-2.76953 -4.53125,0.98438 -5.48828,-2.18359 -5.48828,-2.18359 -0.73828,-1.88281 -1.80859,-2.38281 -1.80859,-2.38281 -1.48047,-1.01172 0.11328,-0.99219 0.11328,-0.99219 1.63281,0.11719 2.49218,1.67969 2.49218,1.67969 1.45313,2.48828 3.81641,1.76953 4.74219,1.35546 0.14844,-1.05468 0.57031,-1.77343 1.03516,-2.17968 -3.61719,-0.41016 -7.42188,-1.8086 -7.42188,-8.05078 0,-1.77735 0.63672,-3.23047 1.67969,-4.3711 -0.16797,-0.41406 -0.72656,-2.0664 0.15625,-4.3125 0,0 1.37109,-0.4375 4.48047,1.67188 1.30078,-0.36328 2.69531,-0.54297 4.07812,-0.54688 1.38282,0.004 2.77735,0.1836 4.07813,0.54688 3.10937,-2.10938 4.47656,-1.67188 4.47656,-1.67188 0.88672,2.2461 0.32813,3.89844 0.16016,4.3125 1.04687,1.14063 1.67578,2.59375 1.67578,4.3711 0,6.25781 -3.80859,7.63281 -7.4375,8.03906 0.58594,0.5 1.10547,1.49609 1.10547,3.01562 0,2.17578 -0.0195,3.9336 -0.0195,4.46875 0,0.4336 0.29297,0.94141 1.12109,0.78516 6.46484,-2.16016 11.12891,-8.26172 11.12891,-15.45703 0,-8.99609 -7.29297,-16.28906 -16.28907,-16.28906"
       id="path7"
       inkscape:connector-curvature="0" />
  </g>
</svg>
