<?xml version="1.0" encoding="UTF-8" standalone="no"?>
<!-- Created with Inkscape (http://www.inkscape.org/) -->

<svg
   xmlns:dc="http://purl.org/dc/elements/1.1/"
   xmlns:cc="http://creativecommons.org/ns#"
   xmlns:rdf="http://www.w3.org/1999/02/22-rdf-syntax-ns#"
   xmlns:svg="http://www.w3.org/2000/svg"
   xmlns="http://www.w3.org/2000/svg"
   xmlns:sodipodi="http://sodipodi.sourceforge.net/DTD/sodipodi-0.dtd"
   xmlns:inkscape="http://www.inkscape.org/namespaces/inkscape"
   width="54.844536mm"
   height="50.799999mm"
   viewBox="0 0 194.33103 180"
   id="svg2"
   version="1.1"
   inkscape:version="0.91 r13725"
   sodipodi:docname="linkedin.svg">
  <defs
     id="defs4">
    <clipPath
       id="clip1">
      <path
         id="path4141"
         d="m 151,118 4.46484,0 0,5 L 151,123 Z m 0,0"
         inkscape:connector-curvature="0" />
    </clipPath>
  </defs>
  <sodipodi:namedview
     id="base"
     pagecolor="#ffffff"
     bordercolor="#666666"
     borderopacity="1.0"
     inkscape:pageopacity="0.0"
     inkscape:pageshadow="2"
     inkscape:zoom="0.83913688"
     inkscape:cx="-89.646979"
     inkscape:cy="48.627307"
     inkscape:document-units="px"
     inkscape:current-layer="layer1"
     showgrid="false"
     fit-margin-top="0"
     fit-margin-left="0"
     fit-margin-right="0"
     fit-margin-bottom="0"
     inkscape:window-width="1920"
     inkscape:window-height="1017"
     inkscape:window-x="1912"
     inkscape:window-y="-8"
     inkscape:window-maximized="1" />
  <metadata
     id="metadata7">
    <rdf:RDF>
      <cc:Work
         rdf:about="">
        <dc:format>image/svg+xml</dc:format>
        <dc:type
           rdf:resource="http://purl.org/dc/dcmitype/StillImage" />
        <dc:title></dc:title>
      </cc:Work>
    </rdf:RDF>
  </metadata>
  <g
     inkscape:label="Layer 1"
     inkscape:groupmode="layer"
     id="layer1"
     transform="translate(-83.601435,-442.3622)">
    <g
       id="surface3597"
       transform="matrix(1.2499999,0,0,1.25,83.601435,442.3622)">
      <path
         id="path4144"
         d="M 133.34375,0 10.628906,0 C 4.765625,0 0,4.648438 0,10.378906 L 0,133.60937 C 0,139.34375 4.765625,144 10.628906,144 l 122.714844,0 c 5.875,0 10.66016,-4.65625 10.66016,-10.39063 l 0,-123.230464 C 144.00391,4.648438 139.21875,0 133.34375,0"
         style="fill:#0775b5;fill-opacity:1;fill-rule:nonzero;stroke:none"
         inkscape:connector-curvature="0" />
      <path
         id="path4146"
         d="m 32.035156,19.824219 c 6.828125,0 12.375,5.550781 12.375,12.378906 0,6.839844 -5.546875,12.386719 -12.375,12.386719 -6.847656,0 -12.386718,-5.546875 -12.386718,-12.386719 0,-6.828125 5.539062,-12.378906 12.386718,-12.378906 m -10.6875,34.160156 21.363282,0 0,68.722655 -21.363282,0 0,-68.722655"
         style="fill:#ffffff;fill-opacity:1;fill-rule:nonzero;stroke:none"
         inkscape:connector-curvature="0" />
      <path
         id="path4148"
         d="m 56.105469,53.984375 20.484375,0 0,9.390625 0.289062,0 c 2.847657,-5.402344 9.816407,-11.097656 20.207032,-11.097656 21.628902,0 25.621092,14.234375 25.621092,32.734375 l 0,37.695311 -21.34375,0 0,-33.421874 c 0,-7.96875 -0.14453,-18.21875 -11.097655,-18.21875 -11.113281,0 -12.820312,8.679688 -12.820312,17.644532 l 0,33.996092 -21.339844,0 0,-68.722655"
         style="fill:#ffffff;fill-opacity:1;fill-rule:nonzero;stroke:none"
         inkscape:connector-curvature="0" />
      <path
         id="path4150"
         d="m 147.51172,119.08984 1.16015,0 0,3.61719 0.63282,0 0,-3.61719 1.15625,0 0,-0.6289 -2.94922,0 0,0.6289"
         style="fill:#211e1e;fill-opacity:1;fill-rule:nonzero;stroke:none"
         inkscape:connector-curvature="0" />
      <g
         id="g4152"
         clip-path="url(#clip1)"
         style="clip-rule:nonzero">
        <path
           id="path4154"
           d="m 154.56641,118.46094 -1.24219,3.11719 -1.23828,-3.11719 -0.89844,0 0,4.24609 0.62891,0 0,-3.23047 1.30078,3.23047 0.41797,0 1.30078,-3.23047 0,3.23047 0.6289,0 0,-4.24609 -0.89843,0"
           style="fill:#211e1e;fill-opacity:1;fill-rule:nonzero;stroke:none"
           inkscape:connector-curvature="0" />
      </g>
    </g>
  </g>
</svg>
